<?xml version="1.0" encoding="UTF-8"?>
<svg width="39px" height="57px" viewBox="0 0 39 57" version="1.1" xmlns="http://www.w3.org/2000/svg" xmlns:xlink="http://www.w3.org/1999/xlink">
    <!-- Generator: Sketch 60 (88103) - https://sketch.com -->
    <title>AL</title>
    <desc>Created with Sketch.</desc>
    <g id="nexus-sprint" stroke="none" stroke-width="1" fill="none" fill-rule="evenodd">
        <g id="sprint__dash--nexus" transform="translate(-474.000000, -503.000000)" fill="#E6E6E6" stroke="#FFFFFF" stroke-width="1.245816">
            <polygon id="AL" points="475.055327 507.510652 475.276556 507.936186 476.050844 508.414905 476.382683 530.223417 476.493298 542.191502 479.313918 558.574486 479.535148 558.521276 482.023936 559 482.687609 554.265955 483.793741 556.925532 485.674156 558.574471 489.269074 556.553193 488.881924 556.234043 488.992539 556.287256 486.503753 550.808532 510.396115 547.085126 512 546.819172 512 546.765961 510.506724 544.053194 510.396115 540.17022 509.179374 538.042556 509.787741 533.893622 510.783259 532.829794 506.690586 525.808512 499.279529 504.106385 499.2242 504 497.565006 504.26596 488.715983 505.648938 484.291477 506.180852 475 507.404256 475.055327 507.510641"></polygon>
        </g>
    </g>
</svg>