<?xml version="1.0" encoding="UTF-8"?>
<svg width="38px" height="32px" viewBox="0 0 38 32" version="1.1" xmlns="http://www.w3.org/2000/svg" xmlns:xlink="http://www.w3.org/1999/xlink">
    <!-- Generator: Sketch 60 (88103) - https://sketch.com -->
    <title>AR@2x</title>
    <desc>Created with Sketch.</desc>
    <g id="nexus-sprint" stroke="none" stroke-width="1" fill="none" fill-rule="evenodd">
        <g id="sprint__dash--nexus" transform="translate(-126.000000, -764.000000)" fill="#2D3047">
            <polygon id="AR" transform="translate(144.000000, 779.828571) rotate(5.000000) translate(-144.000000, -779.828571) " points="162.954418 766.982332 158.033556 767.667465 160.038352 764.670009 159.172646 763 141.81294 764.584371 127.141486 765.69771 125 765.826173 125.273381 767.025152 127.050357 775.674948 127.095939 777.601883 127.597141 789.249136 127.642721 791.17607 127.779412 791.218906 128.462866 791.904039 131.196675 791.818395 131.470056 795.586622 131.561185 796.657143 132.973656 796.528679 137.302189 796.228935 154.479641 794.730208 154.570765 794.730208 154.525183 793.78815 154.980818 793.488406 154.160677 792.032501 155.892092 785.181177 155.208638 784.410402 157.80576 781.712692 157.623503 779.400373 159.53717 776.402918 159.53717 776.360081 159.446046 776.274442 161.086332 774.861353 160.630697 773.148524 161.906476 771.264409 161.633095 769.508756 163 767.025152 163 766.982314 162.954418 766.982314"></polygon>
        </g>
    </g>
</svg>