<?xml version="1.0" encoding="UTF-8"?>
<svg width="81px" height="126px" viewBox="0 0 81 126" version="1.1" xmlns="http://www.w3.org/2000/svg" xmlns:xlink="http://www.w3.org/1999/xlink">
    <!-- Generator: Sketch 60 (88103) - https://sketch.com -->
    <title>CA-path</title>
    <desc>Created with Sketch.</desc>
    <g id="nexus-sprint" stroke="none" stroke-width="1" fill="none" fill-rule="evenodd">
        <g id="sprint__dash--nexus" transform="translate(-148.000000, -401.000000)" fill="#E6E6E6" fill-rule="nonzero" stroke="#FFFFFF" stroke-width="1.245816">
            <polygon id="CA-path" points="191.722743 411.614098 189.498195 411.067837 165.0852 404.622027 156.015883 402 156.015883 402.218501 155.502524 407.626431 153.106857 414.017618 149.114076 418.77004 149 421.173566 150.939347 424.505724 151.909026 428.875769 150.54007 432.426428 150.768227 435.977093 150.083755 437.45198 152.422379 442.313656 153.905411 444.170927 153.791335 449.469604 157.327795 452.692509 159.381224 449.41498 161.605777 451.108368 162.461369 450.343613 159.381224 450.889867 159.324162 453.675771 159.951603 457.171806 158.240407 455.587666 157.270734 453.45727 156.985533 456.407045 157.784092 462.251983 160.978314 466.021143 158.867848 468.643169 159.210081 471.975328 161.491672 475.362116 165.484453 485.850222 166.739328 486.505725 166.340045 493.770926 166.967485 494.644935 175.523444 497.594715 178.147269 500.271366 179.059904 502.019383 181.569653 503.385023 184.30756 503.876654 185.448353 506.881059 187.729939 507.918945 191.152323 511.797358 194.34655 516.877535 194.118387 521.575333 195.88662 523.814976 219.215866 526 221.269295 525.890748 222.18193 523.487227 220.413697 522.230834 220.470758 518.243174 221.49747 518.024667 223.550898 513.217622 224.805773 510.977973 228 509.175331 226.231767 506.881059 224.235376 501.746253 224.349458 500.380619 224.349458 500.325973 222.866426 498.414078 218.303249 492.569146 209.462089 480.660776 197.141512 463.726853 190.182667 454.495139 183.45198 445.20879 191.209379 413.689847 191.722737 411.614081"></polygon>
        </g>
    </g>
</svg>