<?xml version="1.0" encoding="UTF-8"?>
<svg width="71px" height="56px" viewBox="0 0 71 56" version="1.1" xmlns="http://www.w3.org/2000/svg" xmlns:xlink="http://www.w3.org/1999/xlink">
    <!-- Generator: Sketch 60 (88103) - https://sketch.com -->
    <title>CO@2x</title>
    <desc>Created with Sketch.</desc>
    <g id="nexus-sprint" stroke="none" stroke-width="1" fill="none" fill-rule="evenodd">
        <g id="sprint__dash--nexus" transform="translate(-273.000000, -440.000000)" fill="#E6E6E6" stroke="#FFFFFF" stroke-width="1.245816">
            <path d="M342.622781,446.293608 L342.395567,457.516003 L342.340942,458.210819 L342.340855,459.305774 L342.284391,462.675855 L341.664148,492.858395 L341.664148,494.622908 L341.04124,494.622908 L340.118879,494.622587 L336.554364,494.507949 L335.442895,494.451463 L333.057727,494.393746 L331.941578,494.337129 L330.128065,494.279687 L317.653081,493.708274 L305.117733,492.907998 L276.687598,490.395932 L274.332693,490.165278 L274.378883,489.557542 L274.492984,488.058655 L274.944352,483.547433 L276.015854,473.15932 L279.062078,443.413529 L279.302703,441.302865 L279.928352,441.382018 L281.264666,441.551323 L295.184611,442.920329 L306.34075,443.832838 L323.081998,444.916854 L324.204704,444.973713 L325.555225,445.030695 L339.319174,445.544536 L342.635064,445.684373 L342.622781,446.293608 Z" id="CO"></path>
        </g>
    </g>
</svg>