<?xml version="1.0" encoding="UTF-8"?>
<svg width="88px" height="63px" viewBox="0 0 88 63" version="1.1" xmlns="http://www.w3.org/2000/svg" xmlns:xlink="http://www.w3.org/1999/xlink">
    <!-- Generator: Sketch 60 (88103) - https://sketch.com -->
    <title>FL-path</title>
    <desc>Created with Sketch.</desc>
    <g id="nexus-sprint" stroke="none" stroke-width="1" fill="none" fill-rule="evenodd">
        <g id="sprint__dash--nexus" transform="translate(-486.000000, -543.000000)" fill="#E6E6E6" fill-rule="nonzero" stroke="#FFFFFF" stroke-width="1.245816">
            <polygon id="FL-path" points="512.96333 547.60723 511.330062 547.876424 487 551.64518 489.534382 557.190631 489.703341 557.244491 489.083829 559.451906 490.886054 558.698157 492.857236 557.029136 496.23641 556.92146 500.122464 555.575476 502.769481 555.952349 502.149969 556.867618 506.993453 558.428957 511.161102 560.367178 512.118533 562.52075 515.21611 561.874676 522.537658 556.167705 525.240997 556.275387 536.279635 564.24361 538.532416 563.812892 540.897843 566.827897 541.348398 571.619601 540.616242 574.634603 540.954162 576.142106 542.925347 579.910862 542.024234 576.949697 544.558615 576.895838 544.783892 579.049414 543.432225 582.387453 548.10675 588.52514 549.852655 588.579001 548.388345 586.694622 550.190572 586.909978 551.260644 586.263911 550.810091 589.709629 553.231831 591.540164 554.865097 595.739637 557.061561 597.031777 559.877541 597.73169 563.76359 602.469554 565.7911 603.492497 563.08776 603.654016 564.326786 605 568.776034 603.600178 570.972498 602.415712 573 595.631955 571.986251 585.079445 571.760974 584.002653 566.354296 575.388363 561.736086 569.142993 559.145387 564.02826 561.341851 565.804955 561.792404 565.481919 562.749841 569.950586 565.2279 573.342466 562.806159 568.819962 562.9188 566.666385 555.65357 558.213607 553.907667 555.575482 551.598564 551.106815 550.021612 547.338059 548.782581 545.992074 548.500986 544.269215 548.444646 544.215356 544.558597 544 543.037965 545.130622 542.193176 549.276252 541.404697 547.338037 514.821856 550.514556 512.906994 547.661074 512.963336 547.607213"></polygon>
        </g>
    </g>
</svg>