<?xml version="1.0" encoding="UTF-8"?>
<svg width="39px" height="70px" viewBox="0 0 39 70" version="1.1" xmlns="http://www.w3.org/2000/svg" xmlns:xlink="http://www.w3.org/1999/xlink">
    <!-- Generator: Sketch 60 (88103) - https://sketch.com -->
    <title>IL</title>
    <desc>Created with Sketch.</desc>
    <g id="nexus-sprint" stroke="none" stroke-width="1" fill="none" fill-rule="evenodd">
        <g id="sprint__dash--nexus" transform="translate(-437.000000, -418.000000)" fill="#E6E6E6" stroke="#FFFFFF" stroke-width="1.245816">
            <polygon id="IL" points="442.604464 422.364252 444.687427 423.732765 445.345205 425.101273 447.537794 427.268081 447.482959 429.092762 446.277033 432.685103 443.53629 434.737867 441.069626 435.251059 440.576292 438.216164 441.398515 438.615311 440.576292 444.431481 438.548146 445.742969 438.931849 447.966797 438.438515 448.194881 438 450.703818 439.754074 455.778711 446.002956 461.252752 446.551105 463.875728 447.757031 465.187216 451.703698 464.959132 450.991106 468.779557 450.717029 472.885091 453.074069 474.88083 456.801473 476.591471 458.774805 478.188068 459.8711 481.438275 459.268139 482.635725 463.159989 485.942957 463.324434 486 462.995545 485.657872 464.09184 482.977876 468.312578 484.17532 469.354059 482.920851 468.531841 480.41192 471.98517 478.302131 471.053319 476.933623 471.875545 474.994898 471.875545 474.823834 471.65628 474.766791 471.711116 469.691898 472.917043 468.779557 475 463.704664 474.561483 461.480836 473.191114 458.80084 473.958517 455.778711 470.121488 427.667229 469.573334 427.039998 468.14815 423.67574 466.997042 422.421271 466.503709 419.114039 466.503709 419 459.103711 420.083404 454.663715 420.653616 442.71409 422.079149"></polygon>
        </g>
    </g>
</svg>