<?xml version="1.0" encoding="UTF-8"?>
<svg width="32px" height="17px" viewBox="0 0 32 17" version="1.1" xmlns="http://www.w3.org/2000/svg" xmlns:xlink="http://www.w3.org/1999/xlink">
    <!-- Generator: Sketch 60 (88103) - https://sketch.com -->
    <title>MA-path</title>
    <desc>Created with Sketch.</desc>
    <g id="nexus-sprint" stroke="none" stroke-width="1" fill="none" fill-rule="evenodd">
        <g id="sprint__dash--nexus" transform="translate(-586.000000, -380.000000)" fill="#E6E6E6" fill-rule="nonzero">
            <polygon id="MA-path" points="592.666661 386.542766 592.260865 386.710529 588.956516 387.661185 587.797097 388.052632 586.463764 388.444078 586 388.611841 586 388.779605 586.173906 391.687498 586.34782 394.371709 586.521734 396.832237 586.811591 397 587.855071 396.720392 592.550723 395.37829 592.666661 395.657892 601.014488 392.582235 601.07248 392.694079 601.826105 392.414472 604.492769 391.407896 607.043495 394.371709 607.391322 394.092107 607.565236 393.253289 607.507243 394.595397 608.086952 394.595397 608.260866 395.266446 608.782606 396.217107 611.507245 393.029606 613.768115 393.75658 614.289855 392.63816 618 390.736842 616.434779 387.773024 616.840581 389.674342 614.927533 391.072369 612.78261 391.240133 608.492754 386.822368 606.579707 384.026319 608.492754 382.069082 606.521737 381.957237 605.710144 380.111844 605.652152 380 602.347809 383.467103 595.043457 385.815792 592.666643 386.542766"></polygon>
        </g>
    </g>
</svg>