<?xml version="1.0" encoding="UTF-8"?>
<svg width="65px" height="41px" viewBox="0 0 65 41" version="1.1" xmlns="http://www.w3.org/2000/svg" xmlns:xlink="http://www.w3.org/1999/xlink">
    <!-- Generator: Sketch 60 (88103) - https://sketch.com -->
    <title>ND</title>
    <desc>Created with Sketch.</desc>
    <g id="nexus-sprint" stroke="none" stroke-width="1" fill="none" fill-rule="evenodd">
        <g id="sprint__dash--nexus" transform="translate(-328.000000, -351.000000)" fill="#E6E6E6" stroke="#FFFFFF" stroke-width="1.245816">
            <path d="M389.823893,382.761437 L391.070638,385.729633 L391.115695,385.904471 L391.378572,388.422864 L391.795707,390.00907 L391.037089,390.054319 L389.11593,390.168637 L379.644106,390.452645 L356.845206,390.622671 L332.150218,389.941085 L329.347252,389.795323 L329.377848,389.17484 L329.489806,386.90432 L330.385292,369.083882 L331.112146,355.254581 L331.184557,352.318563 L331.848026,352.379722 L332.430266,352.434294 L344.284624,352.887983 L354.403016,353.114828 L366.195734,353.171694 L383.09665,352.831203 L383.109199,352.831076 L384.757863,352.831081 L384.884587,353.287262 L386.018583,357.383641 L388.365708,371.892479 L389.49496,377.758217 L389.823893,382.761437 Z" id="ND"></path>
        </g>
    </g>
</svg>