<?xml version="1.0" encoding="UTF-8"?>
<svg width="56px" height="53px" viewBox="0 0 56 53" version="1.1" xmlns="http://www.w3.org/2000/svg" xmlns:xlink="http://www.w3.org/1999/xlink">
    <!-- Generator: Sketch 60 (88103) - https://sketch.com -->
    <title>NY-path</title>
    <desc>Created with Sketch.</desc>
    <g id="nexus-sprint" stroke="none" stroke-width="1" fill="none" fill-rule="evenodd">
        <g id="sprint__dash--nexus" transform="translate(-534.000000, -362.000000)" fill="#E6E6E6" fill-rule="nonzero" stroke="#FFFFFF" stroke-width="1.245816">
            <polygon id="NY-path" points="535.000017 411.496578 535.381834 413.243151 538.272745 414 554.854558 409.167808 571.545459 403.811641 574.600007 406.315069 575.200004 407.77055 578.745457 409.400683 578.854549 409.633564 579.781819 409.866439 580.76364 410.157532 586.490912 411.671236 586.38182 411.380137 586.87273 413.767125 587.963637 413.476026 588.56364 410.856163 588.56364 410.797922 587.58182 409.808198 589 407.945184 588.345453 407.071894 586.272731 398.513675 586.163638 397.931483 585.890909 397.756826 585.727272 395.19518 585.563635 392.400659 585.400005 389.373264 585.400005 389.198605 585.290912 389.256847 582.563637 379.708903 579.672732 374.87671 578.854549 369.113017 576.400004 363 576.072732 363.174658 564.672736 367.25 562.381829 369.869866 559.818191 375.109591 559.927284 376.273973 556.545469 381.746574 558.618191 382.503423 559.218194 386.636984 556.818193 390.013702 549.618196 394.67123 548.254558 394.089039 542.90911 394.904112 537.945472 398.106165 538.2182 399.794521 539.963655 401.42466 538.981835 406.547945 535.054565 411.438354 535 411.496596"></polygon>
        </g>
    </g>
</svg>