<?xml version="1.0" encoding="UTF-8"?>
<svg width="83px" height="37px" viewBox="0 0 83 37" version="1.1" xmlns="http://www.w3.org/2000/svg" xmlns:xlink="http://www.w3.org/1999/xlink">
    <!-- Generator: Sketch 60 (88103) - https://sketch.com -->
    <title>TN</title>
    <desc>Created with Sketch.</desc>
    <g id="nexus-sprint" stroke="none" stroke-width="1" fill="none" fill-rule="evenodd">
        <g id="sprint__dash--nexus" transform="translate(-453.000000, -475.000000)" fill="#E6E6E6" stroke="#FFFFFF" stroke-width="1.245816">
            <path d="M498.870613,483.361466 L514.870949,480.64371 L515.097286,480.471903 L515.248309,480.446429 L516.242731,480.279131 L525.905114,478.277544 L529.704586,477.48746 L532.979715,476.559591 L534.922286,476.190956 L534.342659,477.95084 L534.412783,481.001498 L533.524781,480.919764 L532.092557,483.874593 L530.327585,484.059383 L527.147082,487.218716 L525.879885,486.737771 L524.403326,488.95528 L524.304927,489.069979 L519.555602,493.407766 L517.299801,493.978532 L515.220102,495.933024 L515.09979,497.515956 L513.044681,498.640253 L513.092887,500.792023 L513.092887,501.903267 L512.559117,501.980443 L511.797855,502.089768 L507.389028,502.947867 L506.200999,503.176892 L501.350735,504.099075 L500.367572,504.20868 L498.669767,504.495065 L489.605365,505.985398 L485.091934,506.556353 L476.454038,507.753215 L476.57208,507.992059 L475.569398,507.992059 L475.543772,507.985899 L472.716075,508.386556 L467.736275,509.07379 L456.413291,510.505907 L454.876869,510.647265 L454.105099,509.866165 L456.341576,507.791275 L455.801048,505.603035 L457.402221,503.056493 L457.06759,500.742213 L458.784929,497.381889 L458.785393,496.990568 L458.907066,494.158317 L459.980986,492.799688 L459.74033,491.663063 L458.886127,490.798526 L461.499853,490.557949 L461.499853,490.562416 L463.110325,490.337598 L473.837587,488.886427 L473.253868,486.523331 L474.025083,486.500365 L475.882044,486.448416 L498.870613,483.361466 Z M459.980986,492.799688 L460.162254,492.570363 L460.041535,493.085663 L459.980986,492.799688 Z M498.870613,483.361466 L498.881346,483.360025 L498.859937,483.36328 L498.870613,483.361466 Z" id="TN"></path>
        </g>
    </g>
</svg>