<?xml version="1.0" encoding="UTF-8"?>
<svg width="134px" height="124px" viewBox="0 0 134 124" version="1.1" xmlns="http://www.w3.org/2000/svg" xmlns:xlink="http://www.w3.org/1999/xlink">
    <!-- Generator: Sketch 60 (88103) - https://sketch.com -->
    <title>TX-path</title>
    <desc>Created with Sketch.</desc>
    <g id="nexus-sprint" stroke="none" stroke-width="1" fill="none" fill-rule="evenodd">
        <g id="sprint__dash--nexus" transform="translate(-296.000000, -495.000000)" fill="#E6E6E6" fill-rule="nonzero" stroke="#FFFFFF" stroke-width="1.245816">
            <polygon id="TX-path" points="335.299059 496.05535 334.906537 496 332.999992 547.898404 321.897189 547.400444 304.121491 546.404529 297 545.906569 298.40187 548.617678 298.457966 548.673028 304.514042 554.648533 307.990675 558.687536 312.588801 562.062592 315.841143 567.927444 317.074783 574.068942 319.710298 575.78413 321.785066 578.052612 324.757025 579.10386 329.074781 581.81497 331.037399 582.534249 333.728987 579.878466 334.57011 577.056697 335.97198 574.345583 340.34581 572.630395 342.028049 573.460321 346.906553 573.847629 351.336462 576.558737 354.364498 577.112025 353.523376 578.661233 355.261695 579.767808 356.887863 581.704315 357.224311 583.751477 358.289733 585.134697 360.757018 590.999549 363.224309 593.046717 365.130853 596.145127 367.542064 598.579596 368.607486 598.911569 369.504683 605.219049 372.140197 606.657602 372.252344 608.649437 372.925242 608.483451 377.523374 614.016328 379.822441 614.514289 382.738326 616.229483 387.224307 616.229483 390.476643 618 394.345798 617.170072 392.607485 615.565536 391.037391 610.917918 390.420571 606.878916 389.523374 605.551021 389.915897 602.839913 388.738323 602.729252 387.168229 600.18413 388.962621 602.065312 391.037391 601.346038 392.158884 598.413608 389.915897 595.425853 393.280378 595.813155 394.850472 593.434018 394.626175 592.604084 396.028044 590.778235 395.691595 592.382771 397.261691 591.165537 396.644865 589.007714 398.663554 590.058962 401.242998 588.620415 398.719633 586.019959 400.289721 586.62858 403.205614 586.794566 407.018696 585.964632 411.280379 583.142862 413.859816 581.040369 414.252338 579.491161 415.822432 577.886626 414.981309 575.230843 415.149535 573.570982 417.953274 572.353748 417.728971 575.286176 419.411218 575.286176 417.560752 576.835378 425.018693 572.962367 426.252338 572.907018 427.037382 569.365976 427.261687 569.365976 428.102803 567.318813 428.495326 561.011327 429 558.466205 427.542056 553.929242 425.747664 550.830832 425.691567 549.336951 423.841096 546.791829 422.719602 536.113373 422.663507 534.785479 422.551356 533.402259 422.214907 528.533328 418.850426 528.643987 418.009301 527.758727 417.841077 527.703376 417.78498 527.703376 415.598066 527.316077 413.074702 525.711541 410.270963 524.549641 404.999937 526.043515 403.598066 525.711541 401.859747 526.375488 399.728905 528.090678 394.009279 525.4349 392.214894 527.869364 389.579378 526.928775 386.775636 525.158254 385.261622 526.430815 383.803678 526.486166 383.803678 525.434924 379.878445 523.609069 378.308349 524.328343 377.523306 523.443083 373.205548 523.000454 369.897135 520.012699 369.392467 521.008619 366.981248 520.897961 364.73826 518.795465 363.728914 515.475736 363.560689 496.553293 349.20555 496.387306 335.635461 496.055333 335.299012 496.055333"></polygon>
        </g>
    </g>
</svg>