<?xml version="1.0" encoding="UTF-8"?>
<svg width="63px" height="47px" viewBox="0 0 63 47" version="1.1" xmlns="http://www.w3.org/2000/svg" xmlns:xlink="http://www.w3.org/1999/xlink">
    <!-- Generator: Sketch 60 (88103) - https://sketch.com -->
    <title>WA-path</title>
    <desc>Created with Sketch.</desc>
    <g id="nexus-sprint" stroke="none" stroke-width="1" fill="none" fill-rule="evenodd">
        <g id="sprint__dash--nexus" transform="translate(-172.000000, -327.000000)" fill="#E6E6E6" fill-rule="nonzero" stroke="#FFFFFF" stroke-width="1.245816">
            <polygon id="WA-path" points="179.189211 358.46237 181.196528 360.626365 180.861975 364.787894 181.252285 365.842148 184.263254 367.451273 192.738572 368.228089 193.073125 369.226859 197.087753 369.282367 200.879343 369.781751 207.068553 369.115905 210.135286 369.61529 210.971662 369.226881 226.639855 372.778053 227.69927 373 227.58775 372.44513 227.81079 369.948213 227.531994 367.562272 234 338.598027 233.107861 338.431566 220.060329 335.379778 208.685561 332.494452 195.805299 328.94328 191.957953 328 192.850092 332.827373 192.013709 334.381011 190.508228 333.604192 191.957953 340.318126 190.396708 342.537608 189.671845 344.590629 189.671845 346.699137 186.382085 348.974106 184.988117 348.086314 183.649906 348.752158 186.103289 345.589396 185.489946 347.753391 186.883914 346.255241 187.999087 346.477189 187.664534 343.702836 188.389397 343.813811 189.894879 340.484587 189.393055 339.985204 187.441501 342.482121 186.159046 342.537606 187.553015 340.983969 189.114259 340.59556 188.556673 337.76572 186.995428 337.37731 186.214809 336.045621 185.266907 336.545004 180.137112 334.325523 175.62066 330.829838 174.393968 334.214548 174.282449 335.657212 175.230345 338.209616 174.617002 346.477188 174.170929 347.75339 176.68007 347.975338 174.170929 349.750924 175.509141 350.416768 174.449725 353.96794 173.947896 351.193587 173 354.411836 174.282449 355.965473 175.676417 355.8545 177.349176 356.853267 178.185558 358.462391 179.189211 358.462391"></polygon>
        </g>
    </g>
</svg>