<?xml version="1.0" encoding="UTF-8"?>
<svg width="14px" height="14px" viewBox="0 0 14 14" version="1.1" xmlns="http://www.w3.org/2000/svg" xmlns:xlink="http://www.w3.org/1999/xlink">
    <!-- Generator: Sketch 59.1 (86144) - https://sketch.com -->
    <title>Path 2@2x</title>
    <desc>Created with Sketch.</desc>
    <g id="Design-Sprint" stroke="none" stroke-width="1" fill="none" fill-rule="evenodd">
        <g id="account__marketplace--big" transform="translate(-639.000000, -36.000000)" fill="#FFFFFF">
            <g id="Path-2" transform="translate(639.000000, 36.000000)">
                <path d="M13.6894198,0.321198331 C13.2753129,-0.0929086083 12.6063709,-0.0929086083 12.1922639,0.321198331 L7,5.50284414 L1.80773606,0.310580205 C1.39362912,-0.103526735 0.724687144,-0.103526735 0.310580205,0.310580205 C-0.103526735,0.724687144 -0.103526735,1.39362912 0.310580205,1.80773606 L5.50284414,7 L0.310580205,12.1922639 C-0.103526735,12.6063709 -0.103526735,13.2753129 0.310580205,13.6894198 C0.724687144,14.1035267 1.39362912,14.1035267 1.80773606,13.6894198 L7,8.49715586 L12.1922639,13.6894198 C12.6063709,14.1035267 13.2753129,14.1035267 13.6894198,13.6894198 C14.1035267,13.2753129 14.1035267,12.6063709 13.6894198,12.1922639 L8.49715586,7 L13.6894198,1.80773606 C14.0929086,1.40424725 14.0929086,0.724687144 13.6894198,0.321198331 Z" id="Path"></path>
            </g>
        </g>
    </g>
</svg>