<?xml version="1.0" encoding="UTF-8"?>
<svg width="13px" height="13px" viewBox="0 0 13 13" version="1.1" xmlns="http://www.w3.org/2000/svg" xmlns:xlink="http://www.w3.org/1999/xlink">
    <!-- Generator: Sketch 54.1 (76490) - https://sketchapp.com -->
    <title>Group 2@2x</title>
    <desc>Created with Sketch.</desc>
    <g id="MVP-(Ultra)" stroke="none" stroke-width="1" fill="none" fill-rule="evenodd">
        <g id="client__invitation--clientBilled" transform="translate(-955.000000, -66.000000)">
            <g id="Group-2" transform="translate(949.000000, 60.000000)">
                <polygon id="Path" points="0 0 24 0 24 24 0 24"></polygon>
                <path d="M18.7116041,6.29825559 C18.3270762,5.91372772 17.7059158,5.91372772 17.3213879,6.29825559 L12.5,11.1097838 L7.67861206,6.2883959 C7.29408419,5.90386803 6.67292378,5.90386803 6.2883959,6.2883959 C5.90386803,6.67292378 5.90386803,7.29408419 6.2883959,7.67861206 L11.1097838,12.5 L6.2883959,17.3213879 C5.90386803,17.7059158 5.90386803,18.3270762 6.2883959,18.7116041 C6.67292378,19.096132 7.29408419,19.096132 7.67861206,18.7116041 L12.5,13.8902162 L17.3213879,18.7116041 C17.7059158,19.096132 18.3270762,19.096132 18.7116041,18.7116041 C19.096132,18.3270762 19.096132,17.7059158 18.7116041,17.3213879 L13.8902162,12.5 L18.7116041,7.67861206 C19.0862723,7.30394388 19.0862723,6.67292378 18.7116041,6.29825559 Z" id="Path" fill="#88888B"></path>
            </g>
        </g>
    </g>
</svg>