<?xml version="1.0" encoding="UTF-8"?>
<svg width="19px" height="22px" viewBox="0 0 19 22" version="1.1" xmlns="http://www.w3.org/2000/svg" xmlns:xlink="http://www.w3.org/1999/xlink">
    <!-- Generator: Sketch 59.1 (86144) - https://sketch.com -->
    <title>file_copy-24px@2x</title>
    <desc>Created with Sketch.</desc>
    <g id="discovery-(round-5)" stroke="none" stroke-width="1" fill="none" fill-rule="evenodd">
        <g id="tax-codes-copy" transform="translate(-1265.000000, -629.000000)">
            <g id="file_copy-24px" transform="translate(1264.000000, 629.000000)">
                <polygon id="Path" points="0 0 22 0 22 22 0 22"></polygon>
                <path d="M14.6666667,0.916666667 L3.66666667,0.916666667 C2.65833333,0.916666667 1.83333333,1.74166667 1.83333333,2.75 L1.83333333,15.5833333 L3.66666667,15.5833333 L3.66666667,2.75 L14.6666667,2.75 L14.6666667,0.916666667 Z M13.75,4.58333333 L7.33333333,4.58333333 C6.325,4.58333333 5.50916667,5.40833333 5.50916667,6.41666667 L5.5,19.25 C5.5,20.2583333 6.31583333,21.0833333 7.32416667,21.0833333 L17.4166667,21.0833333 C18.425,21.0833333 19.25,20.2583333 19.25,19.25 L19.25,10.0833333 L13.75,4.58333333 Z M7.33333333,19.25 L7.33333333,6.41666667 L12.8333333,6.41666667 L12.8333333,11 L17.4166667,11 L17.4166667,19.25 L7.33333333,19.25 Z" id="Shape" fill="#D6D6D6" fill-rule="nonzero"></path>
            </g>
        </g>
    </g>
</svg>