<?xml version="1.0" encoding="UTF-8"?>
<svg width="46px" height="42px" viewBox="0 0 46 42" version="1.1" xmlns="http://www.w3.org/2000/svg" xmlns:xlink="http://www.w3.org/1999/xlink">
    <!-- Generator: Sketch 59.1 (86144) - https://sketch.com -->
    <title>smartcals@2x</title>
    <desc>Created with Sketch.</desc>
    <g id="discovery-(round-5)" stroke="none" stroke-width="1" fill="none" fill-rule="evenodd">
        <g id="tax-codes" transform="translate(-109.000000, -231.000000)">
            <g id="smartcals" transform="translate(109.000000, 231.000000)">
                <path d="M39.1875247,21.4180989 C38.9207687,14.2375502 33.0164817,8.4979681 25.7707113,8.4979681 C19.2387113,8.4979681 13.796992,13.1625295 12.5926284,19.3421563 C12.1065104,19.2767145 11.6112951,19.2398118 11.1072759,19.2398118 C5.00989155,19.2398118 0.0669824561,24.1827209 0.0669824561,30.2800319 C0.0669824561,36.3774163 5.00989155,41.320252 11.1072759,41.320252 C12.9830048,41.320252 14.7486858,40.851008 16.2955917,40.0257225 C18.012118,41.0365486 20.0113206,41.6187018 22.147496,41.6187018 C24.6449219,41.6187018 26.955193,40.823496 28.8446411,39.4762169 C30.6442169,40.9119745 32.9231611,41.7723285 35.4042998,41.7723285 C41.2191547,41.7723285 45.9330175,37.0584657 45.9330175,31.2436108 C45.9330175,26.762756 43.1325933,22.9382265 39.1875247,21.4180989" id="Fill-1" fill="#E0E1DB"></path>
                <path d="M36.8556842,5.0209697 C36.8556842,5.81096651 36.2152791,6.45129825 35.4253557,6.45129825 C34.6354322,6.45129825 33.9950271,5.81096651 33.9950271,5.0209697 C33.9950271,4.23104625 34.6354322,3.59064115 35.4253557,3.59064115 C36.2152791,3.59064115 36.8556842,4.23104625 36.8556842,5.0209697" id="Fill-2" fill="#E8E8E3"></path>
                <path d="M16.9218373,3.59064115 C16.9218373,4.90718022 15.8545933,5.97442424 14.5381276,5.97442424 C13.2215885,5.97442424 12.1543445,4.90718022 12.1543445,3.59064115 C12.1543445,2.27417544 13.2215885,1.20693142 14.5381276,1.20693142 C15.8545933,1.20693142 16.9218373,2.27417544 16.9218373,3.59064115" id="Fill-3" fill="#DFBE4C"></path>
                <path d="M23.8337225,0.893735247 C23.8337225,1.35417544 23.4604402,1.72745774 23,1.72745774 C22.5395598,1.72745774 22.1662775,1.35417544 22.1662775,0.893735247 C22.1662775,0.433295056 22.5395598,0.0600127592 23,0.0600127592 C23.4604402,0.0600127592 23.8337225,0.433295056 23.8337225,0.893735247" id="Fill-4" fill="#E8E8E3"></path>
                <path d="M22.8301595,9.229126 C22.8301595,9.87437321 22.3070654,10.3974673 21.6618182,10.3974673 C21.016571,10.3974673 20.4934769,9.87437321 20.4934769,9.229126 C20.4934769,8.58380542 21.016571,8.06071132 21.6618182,8.06071132 C22.3070654,8.06071132 22.8301595,8.58380542 22.8301595,9.229126" id="Fill-5" fill="#4D4E4E"></path>
                <path d="M33.9950271,8.4979681 C33.9950271,10.2068644 32.6096715,11.5922201 30.9007018,11.5922201 C29.1918054,11.5922201 27.8064498,10.2068644 27.8064498,8.4979681 C27.8064498,6.78899841 29.1918054,5.40364274 30.9007018,5.40364274 C32.6096715,5.40364274 33.9950271,6.78899841 33.9950271,8.4979681" id="Fill-6" fill="#427EB4"></path>
                <path d="M32.4649952,9.25186922 C32.4649952,9.13147687 32.4235439,9.02913238 32.3408612,8.94490909 C32.2579585,8.86061244 32.1564211,8.8185008 32.0361021,8.8185008 C31.9157097,8.8185008 31.8140989,8.86061244 31.7314163,8.94490909 C31.6485869,9.02913238 31.6072089,9.13147687 31.6072089,9.25186922 C31.6072089,9.37526954 31.6485869,9.4791547 31.7314163,9.56330463 C31.8140989,9.64760128 31.9157097,9.68971292 32.0361021,9.68971292 C32.1564211,9.68971292 32.2579585,9.64760128 32.3408612,9.56330463 C32.4235439,9.4791547 32.4649952,9.37526954 32.4649952,9.25186922 Z M31.1467687,9.25186922 C31.1467687,9.1284689 31.1700255,9.0126252 31.2167592,8.90426475 C31.2633461,8.79590431 31.3265869,8.70111643 31.4063349,8.61982775 C31.4860829,8.53853907 31.5801372,8.47471132 31.6884976,8.42797767 C31.7968581,8.38131738 31.9126284,8.35798724 32.0361021,8.35798724 C32.159429,8.35798724 32.2753461,8.38131738 32.3837065,8.42797767 C32.492067,8.47471132 32.5860478,8.53853907 32.6658692,8.61982775 C32.7455439,8.70111643 32.8087847,8.79590431 32.855445,8.90426475 C32.9020319,9.0126252 32.9254354,9.1284689 32.9254354,9.25186922 C32.9254354,9.37526954 32.9020319,9.49184689 32.855445,9.60167464 C32.8087847,9.71157576 32.7455439,9.80709729 32.6658692,9.88838596 C32.5860478,9.96967464 32.492067,10.0335758 32.3837065,10.080236 C32.2753461,10.126823 32.159429,10.1501531 32.0361021,10.1501531 C31.9126284,10.1501531 31.7968581,10.126823 31.6884976,10.080236 C31.5801372,10.0335758 31.4860829,9.96967464 31.4063349,9.88838596 C31.3265869,9.80709729 31.2633461,9.71157576 31.2167592,9.60167464 C31.1700255,9.49184689 31.1467687,9.37526954 31.1467687,9.25186922 Z M31.6298054,6.75539713 L32.0090303,6.96756938 L30.1445997,10.2404657 L29.8015439,10.0463413 L31.6298054,6.75539713 Z M30.1942679,7.73951834 C30.1942679,7.61919936 30.1528166,7.51685486 30.070134,7.43255821 C29.9873046,7.34833493 29.8857671,7.30614992 29.7653748,7.30614992 C29.6449825,7.30614992 29.543445,7.34833493 29.460689,7.43255821 C29.3778596,7.51685486 29.336555,7.61919936 29.336555,7.73951834 C29.336555,7.85991069 29.3778596,7.96232855 29.460689,8.04647847 C29.543445,8.13077512 29.6449825,8.17288676 29.7653748,8.17288676 C29.8857671,8.17288676 29.9873046,8.13077512 30.070134,8.04647847 C30.1528166,7.96232855 30.1942679,7.85991069 30.1942679,7.73951834 Z M28.8760415,7.73951834 C28.8760415,7.61611802 28.8993716,7.50027432 28.9460319,7.39191388 C28.9926188,7.28362679 29.0558596,7.18883892 29.1356077,7.10755024 C29.2153557,7.02626156 29.3094099,6.96236045 29.4177703,6.91570016 C29.5261308,6.86903987 29.6419745,6.84570973 29.7653748,6.84570973 C29.8887751,6.84570973 30.0046188,6.86903987 30.1129793,6.91570016 C30.2213397,6.96236045 30.3153939,7.02626156 30.3951419,7.10755024 C30.4748166,7.18883892 30.5380574,7.28362679 30.5847177,7.39191388 C30.631378,7.50027432 30.6547081,7.61611802 30.6547081,7.73951834 C30.6547081,7.86291866 30.631378,7.97883573 30.5847177,8.08712281 C30.5380574,8.19548325 30.4748166,8.29027113 30.3951419,8.37155981 C30.3153939,8.45284848 30.2213397,8.5167496 30.1129793,8.56340989 C30.0046188,8.61014354 29.8887751,8.63340032 29.7653748,8.63340032 C29.6419745,8.63340032 29.5261308,8.61014354 29.4177703,8.56340989 C29.3094099,8.5167496 29.2153557,8.45284848 29.1356077,8.37155981 C29.0558596,8.29027113 28.9926188,8.19548325 28.9460319,8.08712281 C28.8993716,7.97883573 28.8760415,7.86291866 28.8760415,7.73951834 L28.8760415,7.73951834 Z" id="Fill-7" fill="#FFFFFE"></path>
                <path d="M27.5621435,17.0815534 C27.5621435,19.5819872 25.5351356,21.6089952 23.0347018,21.6089952 C20.5342679,21.6089952 18.50726,19.5819872 18.50726,17.0815534 C18.50726,14.5811196 20.5342679,12.5541116 23.0347018,12.5541116 C25.5351356,12.5541116 27.5621435,14.5811196 27.5621435,17.0815534" id="Fill-8" fill="#39A747"></path>
                <path d="M25.3234035,18.184673 C25.3234035,18.0085231 25.2628038,17.8587847 25.1417512,17.7354577 C25.0205518,17.6122041 24.8719872,17.550504 24.6959107,17.550504 C24.5197608,17.550504 24.3711228,17.6122041 24.2500702,17.7354577 C24.1289442,17.8587847 24.0684179,18.0085231 24.0684179,18.184673 C24.0684179,18.3652982 24.1289442,18.5171643 24.2500702,18.6403445 C24.3711228,18.7636715 24.5197608,18.8253716 24.6959107,18.8253716 C24.8719872,18.8253716 25.0205518,18.7636715 25.1417512,18.6403445 C25.2628038,18.5171643 25.3234035,18.3652982 25.3234035,18.184673 Z M23.3947049,18.184673 C23.3947049,18.0041212 23.4287464,17.8345742 23.4971228,17.6760319 C23.5652791,17.5174896 23.6577927,17.378756 23.7744434,17.2599043 C23.8910941,17.1409793 24.0288006,17.047512 24.1872695,16.9792089 C24.3458852,16.9109059 24.5152855,16.8767911 24.6959107,16.8767911 C24.8763892,16.8767911 25.0460096,16.9109059 25.2045518,16.9792089 C25.3630941,17.047512 25.5005805,17.1409793 25.617378,17.2599043 C25.7339553,17.378756 25.8264689,17.5174896 25.8947719,17.6760319 C25.9630016,17.8345742 25.9971898,18.0041212 25.9971898,18.184673 C25.9971898,18.3652982 25.9630016,18.535799 25.8947719,18.6964689 C25.8264689,18.8573589 25.7339553,18.9971196 25.617378,19.1159713 C25.5005805,19.2348963 25.3630941,19.3285104 25.2045518,19.3966667 C25.0460096,19.4648963 24.8763892,19.4990112 24.6959107,19.4990112 C24.5152855,19.4990112 24.3458852,19.4648963 24.1872695,19.3966667 C24.0288006,19.3285104 23.8910941,19.2348963 23.7744434,19.1159713 C23.6577927,18.9971196 23.5652791,18.8573589 23.4971228,18.6964689 C23.4287464,18.535799 23.3947049,18.3652982 23.3947049,18.184673 Z M24.1014322,14.5319649 L24.6562935,14.8423732 L21.9283541,19.6311419 L21.4263892,19.3471451 L24.1014322,14.5319649 Z M22.001059,15.9718309 C22.001059,15.7958278 21.940386,15.6460159 21.8193333,15.5227624 C21.6982073,15.3995088 21.5496427,15.3377352 21.3734928,15.3377352 C21.1973429,15.3377352 21.0487049,15.3995088 20.9276523,15.5227624 C20.8065263,15.6460159 20.746,15.7958278 20.746,15.9718309 C20.746,16.1480542 20.8065263,16.2977927 20.9276523,16.4209729 C21.0487049,16.5443732 21.1973429,16.606 21.3734928,16.606 C21.5496427,16.606 21.6982073,16.5443732 21.8193333,16.4209729 C21.940386,16.2977927 22.001059,16.1480542 22.001059,15.9718309 Z M20.0722871,15.9718309 C20.0722871,15.7913525 20.1063285,15.6218054 20.1746316,15.4632632 C20.2428612,15.3047943 20.3353014,15.1660606 20.4520989,15.0472089 C20.5687496,14.9282839 20.7063828,14.8347432 20.864925,14.7664402 C21.0233939,14.6982105 21.1928676,14.6640223 21.3734928,14.6640223 C21.5540447,14.6640223 21.7235917,14.6982105 21.882134,14.7664402 C22.0406029,14.8347432 22.178236,14.9282839 22.2949601,15.0472089 C22.4115375,15.1660606 22.504051,15.3047943 22.5723541,15.4632632 C22.6405837,15.6218054 22.6746986,15.7913525 22.6746986,15.9718309 C22.6746986,16.1524561 22.6405837,16.3220032 22.5723541,16.4804721 C22.504051,16.6390144 22.4115375,16.777748 22.2949601,16.8965997 C22.178236,17.0155247 22.0406029,17.1090654 21.882134,17.1772951 C21.7235917,17.2456715 21.5540447,17.2797129 21.3734928,17.2797129 C21.1928676,17.2797129 21.0233939,17.2456715 20.864925,17.1772951 C20.7063828,17.1090654 20.5687496,17.0155247 20.4520989,16.8965997 C20.3353014,16.777748 20.2428612,16.6390144 20.1746316,16.4804721 C20.1063285,16.3220032 20.0722871,16.1524561 20.0722871,15.9718309 L20.0722871,15.9718309 Z" id="Fill-9" fill="#FFFFFE"></path>
                <path d="M20.3859968,28.9711228 C20.3859968,29.4742616 19.9780861,29.8821722 19.4749474,29.8821722 C18.9717352,29.8821722 18.5638246,29.4742616 18.5638246,28.9711228 C18.5638246,28.4679107 18.9717352,28.06 19.4749474,28.06 C19.9780861,28.06 20.3859968,28.4679107 20.3859968,28.9711228" id="Fill-11" fill="#4D4E4E"></path>
                <path d="M23.9111228,28.9711228 C23.9111228,29.4742616 23.5032121,29.8821722 23,29.8821722 C22.4967879,29.8821722 22.0888772,29.4742616 22.0888772,28.9711228 C22.0888772,28.4679107 22.4967879,28.06 23,28.06 C23.5032121,28.06 23.9111228,28.4679107 23.9111228,28.9711228" id="Fill-12" fill="#4D4E4E"></path>
                <path d="M27.4361754,28.9711228 C27.4361754,29.4742616 27.0282648,29.8821722 26.5250526,29.8821722 C26.0219139,29.8821722 25.6140032,29.4742616 25.6140032,28.9711228 C25.6140032,28.4679107 26.0219139,28.06 26.5250526,28.06 C27.0282648,28.06 27.4361754,28.4679107 27.4361754,28.9711228" id="Fill-13" fill="#4D4E4E"></path>
                <path d="M16.0789442,23.9778118 L15.9167337,23.9778118 C15.5692026,23.9778118 15.343311,24.0453812 15.239059,24.1805199 C15.1347337,24.3157321 15.082571,24.5976013 15.082571,25.0262743 L15.082571,27.3549601 C15.082571,27.7643381 15.0265933,28.09837 14.914638,28.3570558 C14.8026093,28.5811132 14.588236,28.7877097 14.2716651,28.9769187 C14.8122201,29.3012663 15.082571,29.7299394 15.082571,30.2628644 L15.082571,32.886992 C15.082571,33.3272568 15.1347337,33.6168293 15.239059,33.7558565 C15.347126,33.8949569 15.5730175,33.9644338 15.9167337,33.9644338 L16.0789442,33.958638 L16.0789442,35.12874 L15.7488006,35.12874 L15.3375152,35.1519234 C14.7715024,35.1519234 14.3654992,34.9993238 14.1193589,34.6943445 C13.8732919,34.3892185 13.7502584,33.8871069 13.7502584,33.1882297 L13.7502584,30.3382105 C13.7502584,30.1374099 13.682689,29.9587656 13.5475502,29.8023509 C13.4123381,29.6459362 13.228925,29.5408038 12.9972376,29.4866603 L12.9972376,28.3686475 C13.2675152,28.3069474 13.4606858,28.1911037 13.5764561,28.0211164 C13.6923732,27.8512026 13.7502584,27.5982392 13.7502584,27.2622998 L13.7502584,24.6787432 C13.7502584,24.0183094 13.8722648,23.5385742 14.1164976,23.239244 C14.3606571,22.9399872 14.7541148,22.7903222 15.2969442,22.7903222 L15.7430048,22.8018405 L16.0789442,22.8134322 L16.0789442,23.9778118" id="Fill-14" fill="#4D4E4E"></path>
                <path d="M29.9210558,22.8134322 L30.2569952,22.8018405 L30.7030558,22.7903222 C31.2458852,22.7903222 31.6393429,22.9399872 31.8835024,23.239244 C32.1277352,23.5385742 32.2497416,24.0183094 32.2497416,24.6787432 L32.2497416,27.2622998 C32.2497416,27.5982392 32.3076268,27.8512026 32.4234705,28.0211164 C32.5393142,28.1911037 32.7324848,28.3069474 33.0027624,28.3686475 L33.0027624,29.4866603 C32.771075,29.5408038 32.5876619,29.6459362 32.4524498,29.8023509 C32.317311,29.9587656 32.2497416,30.1374099 32.2497416,30.3382105 L32.2497416,33.1882297 C32.2497416,33.8871069 32.1267081,34.3892185 31.8806411,34.6943445 C31.6345008,34.9993238 31.2284976,35.1519234 30.6624848,35.1519234 L30.2511994,35.12874 L29.9210558,35.12874 L29.9210558,33.958638 L30.0832663,33.9644338 C30.4269825,33.9644338 30.652874,33.8949569 30.760941,33.7558565 C30.8652663,33.6168293 30.917429,33.3272568 30.917429,32.886992 L30.917429,30.2628644 C30.917429,29.7299394 31.1877799,29.3012663 31.7283349,28.9769187 C31.411764,28.7877097 31.1973907,28.5811132 31.085362,28.3570558 C30.9734067,28.09837 30.917429,27.7643381 30.917429,27.3549601 L30.917429,25.0262743 C30.917429,24.5976013 30.8652663,24.3157321 30.760941,24.1805199 C30.656689,24.0453812 30.4307974,23.9778118 30.0832663,23.9778118 L29.9210558,23.9778118 L29.9210558,22.8134322" id="Fill-15" fill="#4D4E4E"></path>
            </g>
        </g>
    </g>
</svg>