<?xml version="1.0" encoding="UTF-8"?>
<svg width="13px" height="13px" viewBox="0 0 13 13" version="1.1" xmlns="http://www.w3.org/2000/svg" xmlns:xlink="http://www.w3.org/1999/xlink">
    <!-- Generator: Sketch 59.1 (86144) - https://sketch.com -->
    <title>Path@2x</title>
    <desc>Created with Sketch.</desc>
    <g id="Design-Sprint" stroke="none" stroke-width="1" fill="none" fill-rule="evenodd">
        <g id="integrations__details" transform="translate(-922.000000, -700.000000)" fill="#AE4646" fill-rule="nonzero">
            <path d="M934.711604,700.298256 C934.327076,699.913728 933.705916,699.913728 933.321388,700.298256 L928.5,705.109784 L923.678612,700.288396 C923.294084,699.903868 922.672924,699.903868 922.288396,700.288396 C921.903868,700.672924 921.903868,701.294084 922.288396,701.678612 L927.109784,706.5 L922.288396,711.321388 C921.903868,711.705916 921.903868,712.327076 922.288396,712.711604 C922.672924,713.096132 923.294084,713.096132 923.678612,712.711604 L928.5,707.890216 L933.321388,712.711604 C933.705916,713.096132 934.327076,713.096132 934.711604,712.711604 C935.096132,712.327076 935.096132,711.705916 934.711604,711.321388 L929.890216,706.5 L934.711604,701.678612 C935.086272,701.303944 935.086272,700.672924 934.711604,700.298256 Z" id="Path"></path>
        </g>
    </g>
</svg>