<?xml version="1.0" encoding="utf-8"?>
<!-- Generator: Adobe Illustrator 21.1.0, SVG Export Plug-In . SVG Version: 6.00 Build 0)  -->
<svg version="1.1" id="Layer_1" xmlns="http://www.w3.org/2000/svg" xmlns:xlink="http://www.w3.org/1999/xlink" x="0px" y="0px"
	 viewBox="0 0 371.5 76.6" style="enable-background:new 0 0 371.5 76.6;" xml:space="preserve">
<style type="text/css">
	.st0{fill:#FFFFFF;stroke:#FFFFFF;}
	.st1{fill:#FFFFFF;}
	.st2{enable-background:new    ;}
	.st3{fill:#3FAE2A;}
	.st4{fill:#3FAE2A;stroke:#3FAE2A;stroke-width:0.97;stroke-miterlimit:10;}
	.st5{fill:#55565A;stroke:#55565A;stroke-width:0.97;stroke-miterlimit:10;}
	.st6{fill:#55565A;}
</style>
<title>taxjar-plus-logotype</title>
<path class="st0" d="M11.1,34.6c0,4,3.7,7.2,8.2,7.2s8.2-3.2,8.2-7.2s-3.7-7.2-8.2-7.2S11.1,30.7,11.1,34.6z M15.7,34.6
	c0.1-1.9,1.8-3.3,3.7-3.2c1.9-0.1,3.6,1.3,3.7,3.2c-0.1,1.9-1.8,3.3-3.7,3.2c-1.8,0.2-3.5-1.2-3.7-3C15.7,34.7,15.7,34.7,15.7,34.6z
	 M27.5,52.7c0,4,3.7,7.2,8.2,7.2s8.2-3.2,8.2-7.2s-3.7-7.2-8.2-7.2S27.5,48.7,27.5,52.7z M32,52.7c0.1-1.9,1.8-3.3,3.7-3.2
	c1.9-0.1,3.5,1.3,3.7,3.2c-0.1,1.9-1.8,3.3-3.7,3.2c-1.8,0.2-3.5-1.2-3.7-3C32,52.8,32,52.8,32,52.7z"/>
<path class="st0" d="M54.3,24.8c0-1.8-2.4-2.5-3.9-1.4c-15,11.5-30.1,23-45.1,34.5V29.4c0-2.3,0.2-4.2,2.2-5.9
	c0.8-0.5,1.6-0.9,2.5-1.2c0.2-0.1,2.1-0.4,1.2-0.3h0.2c5.2,1.5,10.7,2.2,16.1,2.1c11,0,22.8-2.5,22.8-8V8.5c0-5.5-11.8-8-22.8-8
	S4.7,3,4.7,8.5V16c0,1.4,0.7,2.6,1.8,3.4c-1.6,0.8-3,1.9-4.1,3.3c-2.8,3.5-1.6,9.6-1.6,13.7v25.9c0,1.8,2.4,2.5,3.9,1.4
	c15-11.5,30.1-23,45.1-34.5v25.3c0,2,0.4,4.3-0.4,6.2c-1,2.8-5,4.6-7.8,5.6c-10.2,3.4-21.2,3-31.1-1.2c-2.6-1.2-4.8,2.5-2.3,3.4
	C18.6,72.4,28,72.9,39.4,71c5.8-1,14.5-5.1,14.8-11.4C54.8,48,54.3,36.4,54.3,24.8z M27.5,4.5c12,0,18.3,3,18.3,4s-6.3,4-18.3,4
	s-18.3-3-18.3-4S15.5,4.5,27.5,4.5z M9.2,13.6c4.4,2,11.5,3,18.3,3s13.9-1,18.3-3v2.5c0,1-6.3,4-18.3,4s-18.3-3-18.3-4L9.2,13.6z"/>
<path class="st0" d="M78.6,16.4H59.9V9.5h44.9v6.9H86.1v48.2h-7.5V16.4z"/>
<path class="st0" d="M115.9,60c-1.3,1.9-3.2,3.4-5.4,4.3c-2.2,0.9-4.5,1.4-6.9,1.4c-1.5,0-3-0.2-4.5-0.6C97.6,64.7,96.2,64,95,63
	c-1.2-1-2.3-2.3-3-3.7c-0.8-1.8-1.2-3.7-1.1-5.6c-0.1-3.7,1.4-7.4,4.1-9.9c2.7-2.5,6.7-3.7,11.9-3.7c0.9,0,1.8,0,2.7,0.1
	c0.9,0.1,1.8,0.1,2.7,0.2s1.6,0.1,2.2,0.2c0.4,0,0.9,0.1,1.3,0.2v-1.4c0-2.9-0.8-4.9-2.5-6.2c-2-1.3-4.3-2-6.7-1.9
	c-2.3-0.1-4.5,0.3-6.6,1.2c-1.4,0.7-2.8,1.5-4.1,2.4l-3.3-5c0.7-0.6,1.5-1.2,2.3-1.7c1-0.6,2-1.1,3.1-1.5c1.3-0.5,2.7-0.9,4.1-1.2
	c1.7-0.3,3.5-0.5,5.2-0.5c4.7,0,8.4,1.2,11.1,3.6c2.7,2.4,4,5.8,4,10.2v22.4c0,1.3,0,2.5,0.1,3.4h-6.6L115.9,60z M115.9,46.4
	c-0.4-0.1-0.8-0.2-1.2-0.2c-0.7-0.1-1.4-0.2-2.1-0.2c-0.8-0.1-1.6-0.1-2.5-0.2c-0.9-0.1-1.7-0.1-2.6-0.1c-1.6-0.1-3.3,0.2-4.8,0.7
	c-1.1,0.4-2.1,1.1-2.9,1.9c-0.7,0.7-1.2,1.6-1.4,2.5c-0.3,0.8-0.4,1.7-0.4,2.6c-0.1,1.8,0.6,3.6,2,4.8c1.6,1.2,3.6,1.7,5.6,1.6
	c1.3,0,2.7-0.2,3.9-0.7c1.2-0.5,2.3-1.2,3.2-2c0.9-0.8,1.7-1.8,2.3-2.9c0.6-1,0.9-2.2,0.9-3.4V46.4z M142.1,44.8L129,26.2h8.8
	l8.8,12.7l8.6-12.7h7.8l-12.7,18l14.5,20.4H156l-10.1-14.5L136,64.6h-8L142.1,44.8z M171.9,53.5c1.3,1.6,2.8,3,4.6,4
	c1.7,0.8,3.6,1.3,5.5,1.2c1.2,0,2.4-0.2,3.5-0.6c1.1-0.4,2.1-1.1,2.9-1.9c0.9-1,1.6-2.1,2-3.4c0.5-1.6,0.8-3.3,0.7-5V9.5h7.5v38.9
	c0.1,2.8-0.4,5.5-1.3,8.1c-0.8,2.1-2,3.9-3.6,5.5c-1.5,1.4-3.3,2.4-5.2,3.1c-2,0.6-4.2,1-6.3,1c-3.3,0.1-6.6-0.6-9.5-2.1
	c-2.4-1.3-4.5-3.2-6.1-5.5L171.9,53.5L171.9,53.5z M228,60c-1.3,1.9-3.2,3.4-5.4,4.3c-2.2,0.9-4.5,1.4-6.8,1.4c-1.5,0-3-0.2-4.5-0.6
	c-1.5-0.4-2.9-1.1-4.1-2.1c-1.2-1-2.3-2.3-3-3.7c-0.8-1.8-1.2-3.7-1.1-5.6c-0.1-3.7,1.4-7.4,4.1-9.9c2.7-2.5,6.7-3.7,11.9-3.7
	c0.9,0,1.8,0,2.7,0.1c0.9,0.1,1.8,0.1,2.7,0.2s1.6,0.1,2.2,0.2c0.4,0,0.9,0.1,1.3,0.2v-1.4c0-2.9-0.8-4.9-2.5-6.2
	c-2-1.3-4.3-2-6.7-1.9c-2.3-0.1-4.5,0.3-6.6,1.2c-1.4,0.7-2.8,1.5-4.1,2.4l-3.3-5c0.7-0.6,1.5-1.2,2.3-1.7c1-0.6,2-1.1,3.1-1.5
	c1.3-0.5,2.7-0.9,4.1-1.2c1.7-0.3,3.5-0.5,5.2-0.5c4.7,0,8.4,1.2,11.1,3.6c2.7,2.4,4,5.8,4,10.2v22.4c0,1.3,0,2.5,0.1,3.4h-6.6
	L228,60z M228,46.4c-0.4-0.1-0.8-0.2-1.2-0.2c-0.7-0.1-1.4-0.2-2.1-0.2c-0.8-0.1-1.6-0.1-2.5-0.2c-0.9-0.1-1.7-0.1-2.6-0.1
	c-1.6-0.1-3.3,0.2-4.8,0.7c-1.1,0.4-2.1,1.1-2.9,1.9c-0.7,0.7-1.2,1.6-1.4,2.5c-0.3,0.8-0.4,1.7-0.4,2.6c-0.1,1.8,0.6,3.6,2,4.8
	c1.6,1.2,3.6,1.7,5.6,1.6c1.3,0,2.7-0.2,3.9-0.7c1.2-0.5,2.3-1.2,3.2-2c0.9-0.8,1.7-1.8,2.3-2.9c0.6-1,0.9-2.2,0.9-3.4V46.4z
	 M240.5,64.6V29.9c0-1.2,0-2.5-0.1-3.7h6.7l0.2,6.2c0.5-0.8,1-1.5,1.6-2.2c0.7-0.8,1.6-1.6,2.5-2.2c1.1-0.7,2.2-1.3,3.4-1.7
	c1.4-0.5,2.9-0.7,4.4-0.7c0.7,0,1.5,0.1,2.2,0.2c0.6,0.1,1.2,0.3,1.8,0.5l-1.6,6.9c-1.1-0.4-2.4-0.6-3.6-0.6c-1.4,0-2.9,0.3-4.2,0.9
	c-1.3,0.6-2.4,1.4-3.3,2.5c-1,1.1-1.7,2.4-2.2,3.8c-0.5,1.4-0.8,3-0.8,4.5v20.2h-7L240.5,64.6L240.5,64.6z"/>
<path class="st1" d="M274,12.6c0.8,0,1.5,0.1,2.2,0.4c0.7,0.2,1.3,0.6,1.9,1c0.8,0.6,1.4,1.4,1.9,2.3c0.4,0.9,0.7,1.9,0.7,2.9
	c0,0.9-0.2,1.8-0.5,2.6c-0.3,0.8-0.8,1.5-1.4,2.1c-0.7,0.6-1.4,1.1-2.2,1.5c-1.6,0.7-3.4,0.7-5,0c-0.8-0.3-1.6-0.8-2.2-1.5
	c-0.6-0.6-1.1-1.3-1.4-2.1c-0.3-0.8-0.5-1.6-0.5-2.5c0-0.7,0.1-1.4,0.4-2.1c0.2-0.7,0.6-1.4,1.1-2c0.6-0.8,1.4-1.4,2.3-1.9
	C272.1,12.8,273,12.6,274,12.6z M279.8,19.3c0-0.8-0.1-1.6-0.4-2.3c-0.3-0.7-0.7-1.3-1.2-1.9c-0.6-0.5-1.2-0.9-1.9-1.2
	c-0.7-0.3-1.4-0.4-2.2-0.4c-0.8,0-1.5,0.1-2.2,0.4c-0.7,0.3-1.3,0.7-1.8,1.2c-1.1,1.1-1.7,2.6-1.8,4.1c0,0.8,0.1,1.5,0.4,2.2
	c0.3,0.7,0.7,1.3,1.2,1.8c0.6,0.5,1.2,1,1.9,1.3c0.7,0.3,1.4,0.4,2.2,0.4c0.8,0,1.6-0.1,2.3-0.4c0.7-0.3,1.4-0.7,1.9-1.3
	c0.5-0.5,0.9-1.1,1.2-1.8C279.7,20.7,279.8,20,279.8,19.3z M275.6,19.5l1.7,3.4h-1.6l-1.5-3.2h-1.4v3.2h-1.4v-7.5h2.8
	c0.8,0,1.6,0.2,2.4,0.5c0.5,0.3,0.8,0.9,0.8,1.5c0,0.5-0.2,0.9-0.5,1.3C276.5,19.1,276.1,19.4,275.6,19.5L275.6,19.5z M274,18.8
	c0.5,0,1-0.1,1.5-0.3c0.3-0.2,0.4-0.6,0.4-0.9c0-0.4-0.2-0.8-0.5-1c-0.5-0.2-1-0.3-1.5-0.3h-1.2v2.5L274,18.8L274,18.8z"/>
<g class="st2">
	<path class="st3" d="M281.9,37c-0.5,0.4-0.8,0.8-0.8,1.3s0.3,0.7,1,0.7c0.3,0,0.7-0.1,1.1-0.3h0c0.1,0,0.1,0.2,0.1,0.5
		s0,0.5-0.1,0.6c-1.6,1.1-3,1.7-4.1,1.7s-1.9-0.3-2.4-0.9s-0.8-1.4-0.8-2.4s0.6-2.1,1.7-3.2s2.6-2.2,4.5-3.1s4.2-1.8,7-2.4
		s5.9-0.9,9.4-0.9s6.4,0.7,8.7,2s3.5,2.9,3.5,4.6s-0.6,3.5-1.8,5.3s-2.7,3.3-4.5,4.7s-3.8,2.4-6.1,3.2s-4.2,1.3-6,1.3
		s-3.1-0.7-4.1-2.1c-2.4,3.7-4,6.3-4.8,7.7s-1.6,2.5-2.1,3.4s-1,1.7-1.4,2.2s-0.5,0.8-0.5,0.8c-0.3,0.4-0.7,0.5-1.1,0.5l-1.1,0.2
		l-0.6,0h-0.4c-0.9,0-1.4-0.3-1.4-0.9c0-0.7,1.5-3.5,4.6-8.3s6-9.1,8.7-13.1s4.3-6.1,4.8-6.6s0.9-0.8,1.2-0.9s0.9-0.1,1.7-0.1h1.2
		c0.2,0,0.3,0.2,0.3,0.5s0,0.5-0.1,0.7c-1.4,1.9-3.9,5.7-7.5,11.4c0.1,0.2,0.3,0.4,0.6,0.5s0.6,0.1,0.9,0.1h0.7c1.4,0,3-0.3,4.7-1
		s3.1-1.5,4.4-2.5s2.3-2,3.2-3s1.3-2,1.3-2.7s-0.2-1.4-0.7-2s-1.1-1.1-1.9-1.4c-1.6-0.7-3.5-1-5.8-1s-5,0.6-8.2,1.8
		S283.4,35.9,281.9,37z"/>
	<path class="st3" d="M325,27.6c0.6,0.4,0.9,1.1,0.9,2s-0.5,2.2-1.5,4.1s-2.1,3.8-3.5,5.7s-2.9,4-4.6,6.2c-2.7,3.5-5.3,6.6-7.8,9.4
		c0,0.2-0.1,0.5-0.2,1s-0.2,1-0.2,1.5s0.2,1,0.7,1.4s1.1,0.6,1.8,0.6s1.5-0.2,2.3-0.8s1.5-1.1,2.1-1.7c1.6-1.6,2.5-2.4,2.9-2.4
		s0.6,0.6,0.6,1.7v0.5c0,0.6-0.1,1.1-0.3,1.3c-1.3,1.6-2.8,2.8-4.4,3.6s-3.2,1.2-4.7,1.2s-2.6-0.4-3.4-1.3s-1.1-2.1-1.1-3.7
		c0-3,0.8-6.6,2.4-10.7s3.5-7.6,5.5-10.5c4.6-6.5,8.1-9.8,10.6-9.8C323.7,27,324.4,27.2,325,27.6z M321.9,30.8
		c0-0.2-0.1-0.4-0.2-0.4c-0.5,0-2,1.6-4.3,4.7s-4,5.6-5.1,7.5s-2,4.2-2.9,7c1.8-2.2,4.4-5.6,7.7-10.2S321.9,31.9,321.9,30.8z"/>
	<path class="st3" d="M335.8,54.8c0.3,0,0.5,0.2,0.5,0.7s0.1,0.9,0.1,1.4s0,0.8-0.1,1c-0.5,0.9-1.4,1.9-3,3.2s-3,1.9-4.4,1.9
		c-0.8,0-1.6-0.3-2.3-0.8s-1.1-1.4-1.1-2.7s0.3-2.5,1-3.7c-3.9,4.9-6.9,7.3-9.1,7.3c-0.9,0-1.6-0.3-2.1-0.9s-0.8-1.3-0.8-1.9
		s0.1-1.4,0.3-2.1s0.4-1.3,0.6-1.9s0.5-1.3,0.9-2.1s0.7-1.4,0.9-1.8s0.5-0.9,1-1.7s1-1.8,1.8-3.1s1.3-2.2,1.8-2.8s0.9-0.9,1.4-0.9
		s0.9,0.2,1.2,0.6s0.5,0.7,0.5,0.9s-0.5,1.3-1.6,3.2c-3.1,5.6-4.6,8.9-4.6,9.8c0,0.2,0.1,0.4,0.3,0.4c0.8,0,2.6-1.6,5.6-4.9
		s4.7-5.3,5.2-6.2s0.9-1.7,1.4-2.3s0.8-1,1-1.1c0.7-0.4,1.5-0.7,2.6-0.7c0.2,0,0.3,0,0.4,0s0.2,0.1,0.3,0.4s0.2,0.4,0.2,0.6
		c-0.1,0.4-0.8,1.6-1.9,3.5s-1.7,3-1.8,3.2c-1.8,3.8-2.8,6.3-2.8,7.5c0,0.7,0.2,1,0.8,1c0.9-0.1,2-0.9,3.3-2.2
		c0.5-0.5,0.9-1,1.4-1.5s0.7-0.8,0.9-0.9S335.6,54.8,335.8,54.8z"/>
	<path class="st3" d="M337.5,57.4l0,0.4c0,0.4,0.1,0.7,0.4,1s0.6,0.4,0.8,0.4c1.9,0,3.5-0.3,5-0.8s2.2-1.1,2.2-1.7
		c0-0.3-0.3-0.5-0.8-0.7s-1.4-0.4-2.6-0.7s-2.1-0.5-2.7-0.7s-1-0.3-1.3-0.5s-0.7-0.3-1-0.6c-0.7-0.5-1.1-1.3-1.1-2.3s0.4-2,1.1-3
		s1.7-1.9,2.8-2.6s2.4-1.4,3.7-1.9c2.6-1.1,4.8-1.6,6.5-1.6c1.7,0,2.8,0.4,3.2,1.1c0.1,0.3,0.2,0.6,0.2,0.9v0.2
		c0,0.8-0.2,1.5-0.5,1.9s-0.9,0.9-1.7,1.3s-1.4,0.6-1.8,0.6s-0.7,0-0.8-0.1s-0.2-0.1-0.3-0.2s-0.2-0.2-0.3-0.2s-0.2-0.2-0.2-0.4
		s0.1-0.4,0.2-0.6s0.3-0.4,0.3-0.6c-1,0-2.1,0.3-3.2,0.7s-2.1,0.9-2.9,1.4s-1.5,1-2,1.5s-0.8,0.8-0.8,1.1s0.4,0.4,1.1,0.6
		c3.2,0.6,5.4,1.2,6.4,1.7s1.7,1,2.1,1.6s0.6,1.1,0.6,1.6c0,1-0.4,1.9-1.2,2.8s-1.8,1.6-3,2.2c-2.5,1.2-4.7,1.9-6.6,1.9
		s-3.2-0.3-3.9-0.9s-1.1-1.2-1.1-2s0.2-1.5,0.6-2.2s0.9-1,1.5-1S337.5,57.1,337.5,57.4z"/>
</g>
<path class="st4" d="M12,35.1c0,3.9,3.6,7,8,7s8-3.1,8-7s-3.6-7-8-7S12,31.4,12,35.1z M16.4,35.1c0.1-1.9,1.8-3.3,3.6-3.1
	c1.9-0.1,3.5,1.3,3.6,3.1c-0.1,1.8-1.7,3.2-3.6,3.1c-1.8,0.2-3.4-1.1-3.6-2.9C16.5,35.3,16.5,35.2,16.4,35.1L16.4,35.1z M28,52.8
	c0,3.9,3.6,7,8,7s8-3.1,8-7s-3.6-7-8-7S28,48.9,28,52.8z M32.3,52.8c0.1-1.9,1.8-3.3,3.6-3.1c1.8-0.1,3.4,1.3,3.6,3.1
	c-0.1,1.8-1.8,3.2-3.6,3.1c-1.8,0.2-3.4-1.1-3.6-2.9C32.3,52.9,32.3,52.8,32.3,52.8L32.3,52.8z"/>
<path class="st4" d="M54,25.6c0-1.8-2.3-2.4-3.8-1.4C35.6,35.4,21,46.6,6.3,57.8V30.1c0-2.2,0.2-4.1,2.1-5.7
	c0.7-0.5,1.6-0.9,2.4-1.2c0.2-0.1,2-0.4,1.2-0.3h0.2c5.1,1.4,10.4,2.1,15.7,2c10.7,0,22.2-2.4,22.2-7.8V9.7c0-5.3-11.5-7.8-22.2-7.8
	S5.8,4.4,5.8,9.7V17c0,1.3,0.7,2.5,1.8,3.3c-1.6,0.8-2.9,1.9-4,3.2C0.8,27,2,32.9,2,36.9v25.2c0,1.8,2.3,2.4,3.8,1.4
	c14.6-11.2,29.3-22.4,43.9-33.6v24.6c0,2,0.4,4.2-0.4,6c-1,2.7-4.9,4.5-7.6,5.5c-9.9,3.3-20.7,2.9-30.3-1.2
	c-2.5-1.2-4.7,2.4-2.2,3.3c10.1,3.8,19.3,4.3,30.4,2.4c5.7-1,14.1-5,14.4-11.1C54.5,48.2,54,36.9,54,25.6z M28,5.8
	c11.7,0,17.8,2.9,17.8,3.9s-6.2,3.9-17.8,3.9s-17.8-2.9-17.8-3.9S16.3,5.8,28,5.8z M10.1,14.7c4.3,1.9,11.2,2.9,17.8,2.9
	s13.5-1,17.8-2.9v2.4c0,1-6.1,3.9-17.8,3.9s-17.8-2.9-17.8-3.9L10.1,14.7z M77.7,17.4H59.5v-6.7h43.7v6.7H85v46.9h-7.3L77.7,17.4z"
	/>
<path class="st4" d="M114,59.9c-1.3,1.9-3.1,3.3-5.3,4.2c-2.1,0.9-4.4,1.4-6.7,1.4c-1.5,0-3-0.2-4.4-0.6c-1.5-0.4-2.8-1.1-4-2
	c-1.2-1-2.2-2.2-2.9-3.6c-0.8-1.7-1.2-3.6-1.1-5.5c-0.1-3.6,1.3-7.2,4-9.6c2.6-2.4,6.5-3.6,11.6-3.6c0.9,0,1.8,0,2.6,0.1
	c0.9,0.1,1.8,0.1,2.6,0.2s1.6,0.1,2.1,0.2c0.4,0,0.9,0.1,1.3,0.2v-1.4c0-2.8-0.8-4.8-2.4-6c-1.9-1.3-4.2-2-6.5-1.9
	c-2.2-0.1-4.4,0.3-6.4,1.2c-1.4,0.7-2.7,1.5-4,2.3l-3.2-4.9c0.7-0.6,1.5-1.1,2.2-1.7c1-0.6,2-1.1,3-1.5c1.3-0.5,2.6-0.9,4-1.2
	c1.7-0.3,3.4-0.5,5.1-0.5c4.6,0,8.2,1.2,10.8,3.5c2.6,2.3,3.9,5.7,3.9,9.9V61c0,1.3,0,2.4,0.1,3.3H114V59.9z M114,46.6
	c-0.4-0.1-0.8-0.2-1.2-0.2c-0.7-0.1-1.3-0.2-2-0.2c-0.8-0.1-1.6-0.1-2.4-0.2c-0.8-0.1-1.7-0.1-2.5-0.1c-1.6-0.1-3.2,0.2-4.7,0.7
	c-1.1,0.4-2,1-2.8,1.8c-0.7,0.7-1.2,1.5-1.4,2.4c-0.3,0.8-0.4,1.7-0.4,2.5c-0.1,1.8,0.6,3.5,1.9,4.7c1.6,1.1,3.5,1.7,5.4,1.6
	c1.3,0,2.6-0.2,3.8-0.7c1.1-0.5,2.2-1.1,3.1-2c0.9-0.8,1.7-1.8,2.2-2.8c0.6-1,0.9-2.1,0.9-3.3L114,46.6z M139.5,45.1L126.8,27h8.6
	l8.6,12.4l8.4-12.4h7.6l-12.4,17.5l14.1,19.9h-8.6l-9.8-14.1l-9.6,14.1h-7.8L139.5,45.1z"/>
<path class="st5" d="M168.5,53.5c1.2,1.6,2.7,2.9,4.4,3.9c1.7,0.8,3.5,1.2,5.4,1.2c1.2,0,2.3-0.2,3.4-0.6c1-0.4,2-1.1,2.8-1.8
	c0.9-1,1.5-2.1,1.9-3.3c0.5-1.6,0.7-3.2,0.7-4.9V10.7h7.3v37.9c0.1,2.7-0.3,5.4-1.3,7.9c-0.8,2-2,3.8-3.5,5.3
	c-1.5,1.3-3.2,2.4-5.1,3c-2,0.6-4,1-6.1,1c-3.2,0.1-6.4-0.5-9.2-2c-2.4-1.3-4.4-3.1-5.9-5.3L168.5,53.5L168.5,53.5z M223.2,59.9
	c-1.3,1.9-3.1,3.3-5.3,4.2c-2.1,0.9-4.3,1.3-6.6,1.4c-1.5,0-3-0.2-4.4-0.6c-1.5-0.4-2.8-1.1-4-2c-1.2-1-2.2-2.2-2.9-3.6
	c-0.8-1.7-1.2-3.6-1.1-5.5c-0.1-3.6,1.3-7.2,4-9.6c2.6-2.4,6.5-3.6,11.6-3.6c0.9,0,1.8,0,2.6,0.1c0.9,0.1,1.8,0.1,2.6,0.2
	s1.6,0.1,2.1,0.2c0.4,0,0.9,0.1,1.3,0.2v-1.4c0-2.8-0.8-4.8-2.4-6c-1.9-1.3-4.2-1.9-6.5-1.9c-2.2-0.1-4.4,0.3-6.4,1.2
	c-1.4,0.7-2.7,1.5-4,2.3l-3.2-4.9c0.7-0.6,1.5-1.1,2.2-1.7c1-0.6,2-1.1,3-1.5c1.3-0.5,2.6-0.9,4-1.2c1.7-0.3,3.4-0.5,5.1-0.5
	c4.6,0,8.2,1.2,10.8,3.5c2.6,2.3,3.9,5.7,3.9,9.9V61c0,1.3,0,2.4,0.1,3.3h-6.4L223.2,59.9z M223.2,46.6c-0.4-0.1-0.8-0.2-1.2-0.2
	c-0.7-0.1-1.3-0.2-2-0.2c-0.8-0.1-1.6-0.1-2.4-0.2c-0.9-0.1-1.7-0.1-2.6-0.1c-1.6-0.1-3.2,0.2-4.7,0.7c-1.1,0.4-2,1-2.8,1.8
	c-0.7,0.7-1.1,1.5-1.4,2.4c-0.3,0.8-0.4,1.7-0.4,2.5c-0.1,1.8,0.6,3.5,1.9,4.7c1.6,1.1,3.5,1.7,5.4,1.6c1.3,0,2.6-0.2,3.8-0.7
	c1.1-0.5,2.2-1.1,3.1-2c0.9-0.8,1.7-1.8,2.2-2.8c0.6-1,0.9-2.1,0.9-3.3L223.2,46.6z M235.3,64.4V30.6c0-1.2,0-2.4-0.1-3.6h6.5l0.2,6
	c0.5-0.7,1-1.5,1.6-2.1c0.7-0.8,1.6-1.5,2.5-2.1c1-0.7,2.1-1.2,3.3-1.7c1.4-0.5,2.8-0.7,4.3-0.7c0.7,0,1.4,0.1,2.1,0.2
	c0.6,0.1,1.2,0.3,1.7,0.5l-1.6,6.7c-1.1-0.4-2.3-0.6-3.5-0.6c-1.4,0-2.8,0.3-4.1,0.9c-1.2,0.6-2.3,1.4-3.2,2.4
	c-0.9,1.1-1.7,2.3-2.1,3.7c-0.5,1.4-0.8,2.9-0.8,4.4v19.7h-6.8L235.3,64.4z"/>
<path class="st6" d="M268,13.7c0.7,0,1.5,0.1,2.1,0.4c0.7,0.2,1.3,0.6,1.9,1c0.8,0.6,1.4,1.4,1.9,2.2c0.4,0.9,0.7,1.8,0.7,2.8
	c0,0.9-0.2,1.7-0.5,2.5c-0.3,0.8-0.8,1.4-1.4,2c-0.6,0.6-1.4,1.1-2.1,1.5c-1.6,0.6-3.3,0.6-4.9,0c-0.8-0.3-1.5-0.8-2.1-1.5
	c-0.6-0.6-1.1-1.2-1.4-2c-0.3-0.8-0.5-1.6-0.5-2.4c0-0.7,0.1-1.4,0.4-2c0.2-0.7,0.6-1.4,1.1-2c0.6-0.8,1.4-1.4,2.2-1.9
	C266.1,14,267,13.7,268,13.7z M273.6,20.2c0-0.8-0.1-1.5-0.4-2.2c-0.3-0.7-0.7-1.3-1.2-1.9c-0.5-0.5-1.2-0.9-1.9-1.2
	c-0.7-0.3-1.4-0.4-2.1-0.4c-0.7,0-1.5,0.1-2.1,0.4c-0.7,0.3-1.2,0.7-1.8,1.2c-1.1,1.1-1.7,2.5-1.8,4c0,0.7,0.1,1.5,0.4,2.1
	c0.3,0.6,0.7,1.2,1.2,1.7c0.6,0.5,1.2,0.9,1.9,1.3c0.7,0.3,1.4,0.4,2.1,0.4c0.8,0,1.5-0.1,2.2-0.4c0.7-0.3,1.3-0.7,1.8-1.3
	c0.5-0.5,0.9-1.1,1.2-1.8C273.5,21.6,273.6,20.9,273.6,20.2L273.6,20.2z M269.5,20.4l1.7,3.3h-1.6l-1.5-3.1h-1.4v3.1h-1.4v-7.3h2.7
	c0.8,0,1.6,0.1,2.3,0.5c0.5,0.3,0.8,0.9,0.8,1.5c0,0.5-0.2,0.9-0.5,1.3C270.5,20.1,270,20.4,269.5,20.4L269.5,20.4z M268,19.8
	c0.5,0,1-0.1,1.5-0.3c0.3-0.2,0.4-0.5,0.4-0.9c0-0.4-0.2-0.8-0.5-1c-0.5-0.2-1-0.3-1.5-0.3h-1.2v2.4L268,19.8L268,19.8z"/>
</svg>
