<?xml version="1.0" encoding="UTF-8"?>
<svg width="15px" height="15px" viewBox="0 0 15 15" version="1.1" xmlns="http://www.w3.org/2000/svg" xmlns:xlink="http://www.w3.org/1999/xlink">
    <!-- Generator: Sketch 59.1 (86144) - https://sketch.com -->
    <title>Shape 2@2x</title>
    <desc>Created with Sketch.</desc>
    <g id="discovery-(round-5)" stroke="none" stroke-width="1" fill="none" fill-rule="evenodd">
        <g id="tax-codes-copy" transform="translate(-114.000000, -238.000000)" fill="#B7B7B8" fill-rule="nonzero">
            <g id="Shape-2" transform="translate(114.000000, 238.000000)">
                <path d="M10.417188,9.16718799 L9.75885466,9.16718799 L9.52552133,8.94218799 C10.5255213,7.77552133 11.042188,6.18385466 10.7588547,4.49218799 C10.367188,2.17552133 8.43385466,0.325521328 6.10052133,0.0421879943 C2.57552133,-0.391145339 -0.391145339,2.57552133 0.0421879943,6.10052133 C0.325521328,8.43385466 2.17552133,10.367188 4.49218799,10.7588547 C6.18385466,11.042188 7.77552133,10.5255213 8.94218799,9.52552133 L9.16718799,9.75885466 L9.16718799,10.417188 L12.7088547,13.9588547 C13.0505213,14.3005213 13.6088547,14.3005213 13.9505213,13.9588547 C14.292188,13.617188 14.292188,13.0588547 13.9505213,12.717188 L10.417188,9.16718799 Z M5.41718799,9.16718799 C3.34218799,9.16718799 1.66718799,7.49218799 1.66718799,5.41718799 C1.66718799,3.34218799 3.34218799,1.66718799 5.41718799,1.66718799 C7.49218799,1.66718799 9.16718799,3.34218799 9.16718799,5.41718799 C9.16718799,7.49218799 7.49218799,9.16718799 5.41718799,9.16718799 Z" id="Shape"></path>
            </g>
        </g>
    </g>
</svg>