<?xml version="1.0" encoding="UTF-8"?>
<svg width="22px" height="22px" viewBox="0 0 22 22" version="1.1" xmlns="http://www.w3.org/2000/svg" xmlns:xlink="http://www.w3.org/1999/xlink">
    <!-- Generator: Sketch 54.1 (76490) - https://sketchapp.com -->
    <title>round-new_releases-24px (2)@2x</title>
    <desc>Created with Sketch.</desc>
    <g id="AutoFile-Manager-(Final)" stroke="none" stroke-width="1" fill="none" fill-rule="evenodd">
        <g id="af__dashboard--credits" transform="translate(-1064.000000, -812.000000)" fill="#0B5C98" fill-rule="nonzero">
            <g id="round-new_releases-24px-(2)" transform="translate(1064.000000, 812.000000)">
                <path d="M21.42,10.34 L19.56,8.22 L19.82,5.41 C19.87,4.91 19.53,4.45 19.05,4.34 L16.29,3.71 L14.85,1.28 C14.59,0.85 14.06,0.67 13.6,0.87 L11,2 L8.41,0.89 C7.95,0.69 7.41,0.87 7.16,1.3 L5.71,3.72 L2.96,4.34 C2.47,4.45 2.13,4.9 2.18,5.41 L2.44,8.21 L0.58,10.34 C0.25,10.72 0.25,11.28 0.58,11.66 L2.44,13.78 L2.18,16.6 C2.13,17.1 2.47,17.56 2.95,17.67 L5.71,18.3 L7.15,20.72 C7.41,21.15 7.94,21.33 8.41,21.13 L11,20 L13.59,21.11 C14.05,21.31 14.59,21.13 14.84,20.7 L16.28,18.27 L19.04,17.64 C19.53,17.53 19.86,17.07 19.81,16.57 L19.55,13.76 L21.41,11.64 C21.75,11.28 21.75,10.72 21.42,10.34 L21.42,10.34 Z M12,16 L10,16 L10,14 L12,14 L12,16 Z M11,12 C10.45,12 10,11.55 10,11 L10,7 C10,6.45 10.45,6 11,6 C11.55,6 12,6.45 12,7 L12,11 C12,11.55 11.55,12 11,12 Z" id="Shape"></path>
            </g>
        </g>
    </g>
</svg>