<?xml version="1.0" encoding="UTF-8"?>
<svg width="20px" height="17px" viewBox="0 0 20 17" version="1.1" xmlns="http://www.w3.org/2000/svg" xmlns:xlink="http://www.w3.org/1999/xlink">
    <!-- Generator: Sketch 54.1 (76490) - https://sketchapp.com -->
    <title>Shape@2x</title>
    <desc>Created with Sketch.</desc>
    <g id="AutoFile-Manager-(Final)" stroke="none" stroke-width="1" fill="none" fill-rule="evenodd">
        <g id="af__dashboard--credits" transform="translate(-1092.000000, -792.000000)" fill="#AE4646" fill-rule="nonzero">
            <path d="M1094.47,809 L1109.53,809 C1111.07,809 1112.03,807.33 1111.26,806 L1103.73,792.99 C1102.96,791.66 1101.04,791.66 1100.27,792.99 L1092.74,806 C1091.97,807.33 1092.93,809 1094.47,809 Z M1102,802 C1101.45,802 1101,801.55 1101,801 L1101,799 C1101,798.45 1101.45,798 1102,798 C1102.55,798 1103,798.45 1103,799 L1103,801 C1103,801.55 1102.55,802 1102,802 Z M1103,806 L1101,806 L1101,804 L1103,804 L1103,806 Z" id="Shape"></path>
        </g>
    </g>
</svg>